<svg width="32" height="32" viewBox="0 0 32 32" fill="none" xmlns="http://www.w3.org/2000/svg">
<g clip-path="url(#clip0_699_2)">
<path d="M1.72753 20.992C1.4502 22.0587 1.58887 23.0613 2.14353 24C2.6982 24.96 3.50887 25.5787 4.57553 25.856C5.6422 26.1333 6.65553 26.0053 7.61553 25.472C8.1702 25.152 9.02353 24.512 10.1755 23.552C11.3275 22.592 12.3835 21.6213 13.3435 20.64C12.9382 21.984 12.6182 23.3813 12.3835 24.832C12.1489 26.2827 12.0209 27.3387 11.9995 28C11.9995 29.1093 12.3942 30.0587 13.1835 30.848C13.9729 31.6373 14.9115 32.0213 15.9995 32C17.0875 31.9787 18.0262 31.5947 18.8155 30.848C19.6049 30.1013 19.9995 29.152 19.9995 28C19.9995 27.36 19.8715 26.304 19.6155 24.832C19.3595 23.36 19.0502 21.9627 18.6875 20.64C19.6475 21.6427 20.7035 22.624 21.8555 23.584C23.0075 24.544 23.8502 25.1733 24.3835 25.472C25.3435 26.0267 26.3569 26.1547 27.4235 25.856C28.4902 25.5573 29.3009 24.9387 29.8555 24C30.4102 23.0613 30.5489 22.0587 30.2715 20.992C29.9942 19.9253 29.3649 19.104 28.3835 18.528C27.8075 18.208 26.8262 17.792 25.4395 17.28C24.0529 16.768 22.6982 16.3413 21.3755 16C22.7195 15.6587 24.0849 15.232 25.4715 14.72C26.8582 14.208 27.8289 13.792 28.3835 13.472C29.3435 12.9173 29.9729 12.1067 30.2715 11.04C30.5702 9.97333 30.4315 8.96 29.8555 8C29.3009 7.04 28.4902 6.42133 27.4235 6.144C26.3569 5.86667 25.3435 5.99467 24.3835 6.528C23.8289 6.86933 22.9862 7.50933 21.8555 8.448C20.7249 9.38667 19.6689 10.3573 18.6875 11.36C19.0715 10.0373 19.3809 8.64 19.6155 7.168C19.8502 5.696 19.9782 4.64 19.9995 4C19.9995 2.912 19.6049 1.97333 18.8155 1.184C18.0262 0.394667 17.0875 0 15.9995 0C14.9115 0 13.9729 0.394667 13.1835 1.184C12.3942 1.97333 11.9995 2.912 11.9995 4C11.9995 4.66133 12.1275 5.71733 12.3835 7.168C12.6395 8.61867 12.9595 10.016 13.3435 11.36C12.3835 10.3787 11.3275 9.41867 10.1755 8.48C9.02353 7.54133 8.1702 6.89067 7.61553 6.528C6.65553 5.99467 5.6422 5.86667 4.57553 6.144C3.50887 6.42133 2.6982 7.04 2.14353 8C1.58887 8.96 1.4502 9.97333 1.72753 11.04C2.00487 12.1067 2.6342 12.9173 3.61553 13.472C4.1702 13.792 5.14087 14.208 6.52753 14.72C7.9142 15.232 9.2902 15.6587 10.6555 16C9.31153 16.3413 7.9462 16.768 6.55953 17.28C5.17287 17.792 4.19153 18.208 3.61553 18.528C2.65553 19.0827 2.0262 19.904 1.72753 20.992Z" fill="#F17105"/>
</g>
<defs>
<clipPath id="clip0_699_2">
<rect width="32" height="32" fill="white"/>
</clipPath>
</defs>
</svg>
