<svg width="32" height="32" viewBox="0 0 32 32" fill="none" xmlns="http://www.w3.org/2000/svg">
<path fill-rule="evenodd" clip-rule="evenodd" d="M16 8C11.5817 8 8 11.5817 8 16C8 20.4182 11.5817 24 16 24C20.4182 24 24 20.4182 24 16C24 11.5817 20.4182 8 16 8ZM12 16C12 13.7909 13.7909 12 16 12C18.2091 12 20 13.7909 20 16C20 18.2091 18.2091 20 16 20C13.7909 20 12 18.2091 12 16Z" fill="#0E456D"/>
<path fill-rule="evenodd" clip-rule="evenodd" d="M16 0C7.16344 0 0 7.16344 0 16C0 24.8366 7.16344 32 16 32C24.8366 32 32 24.8366 32 16C32 7.16344 24.8366 0 16 0ZM4 16C4 9.37258 9.37258 4 16 4C22.6274 4 28 9.37258 28 16C28 22.6274 22.6274 28 16 28C9.37258 28 4 22.6274 4 16Z" fill="#009AD6"/>
</svg>
