<svg xmlns="http://www.w3.org/2000/svg" xmlns:xlink="http://www.w3.org/1999/xlink" xmlns:svgjs="http://svgjs.dev/svgjs" version="1.1" width="1200" height="560" preserveAspectRatio="none" viewBox="0 0 1200 560"><g mask="url(&quot;#SvgjsMask1106&quot;)" fill="none"><rect width="1200" height="560" x="0" y="0" fill="rgba(14, 69, 109, 1)"/><path d="M633.99 108.97 a143.85 143.85 0 1 0 287.7 0 a143.85 143.85 0 1 0 -287.7 0z" fill="rgba(26, 143, 227, 0.28)" class="triangle-float3"/><path d="M834.21 238.33 a132.55 132.55 0 1 0 265.1 0 a132.55 132.55 0 1 0 -265.1 0z" fill="rgba(26, 143, 227, 0.28)" class="triangle-float2"/><path d="M964.4327051523062 307.66988159384346L936.4027995275089 148.7043874183306 777.4373053519961 176.73429304312785 805.4672109767934 335.6997872186407z" fill="rgba(26, 143, 227, 0.28)" class="triangle-float3"/><path d="M557.6780914734683 431.48532625551434L560.0542729994066 567.6166747042324 696.1856214481246 565.2404931782941 693.8094399221864 429.10914472957603z" fill="rgba(26, 143, 227, 0.28)" class="triangle-float2"/><path d="M-44.63948726191538 138.47642131959486L74.97789905803184 235.340670854007 171.84214859244398 115.72328453405979 52.22476227249676 18.859034999647648z" fill="rgba(26, 143, 227, 0.28)" class="triangle-float2"/></g><defs><mask id="SvgjsMask1106"><rect width="1200" height="560" fill="white"/></mask><style> @keyframes float1 { 0%{transform: translate(0, 0)} 50%{transform: translate(-10px, 0)} 100%{transform: translate(0, 0)} } .triangle-float1 { animation: float1 5s infinite; } @keyframes float2 { 0%{transform: translate(0, 0)} 50%{transform: translate(-5px, -5px)} 100%{transform: translate(0, 0)} } .triangle-float2 { animation: float2 4s infinite; } @keyframes float3 { 0%{transform: translate(0, 0)} 50%{transform: translate(0, -10px)} 100%{transform: translate(0, 0)} } .triangle-float3 { animation: float3 6s infinite; } </style></defs></svg>