<svg width="820" height="312" viewBox="0 0 820 312" fill="none" xmlns="http://www.w3.org/2000/svg">
<g clip-path="url(#clip0_710_5)">
<rect width="820" height="312" fill="#0E456D"/>
<path d="M98.2871 236L152.487 251.542L111.582 273.858L52.3939 254.937L98.2871 236Z" fill="url(#paint0_linear_710_5)"/>
<line x1="820.267" y1="150.423" x2="564.268" y2="312.248" stroke="#979797" stroke-dasharray="2 2"/>
<line x1="819.436" y1="106.875" x2="316.896" y2="0.489164" stroke="#979797" stroke-dasharray="2 2"/>
<line x1="139.152" y1="230.524" x2="392.152" y2="311.524" stroke="#979797" stroke-dasharray="2 2"/>
<path d="M706.691 188.268L780.031 209.298L724.681 248L653.5 226.768L706.691 188.268Z" fill="url(#paint1_linear_710_5)"/>
<path d="M624.001 39L696.001 54.0001L640.995 92.7322L571.001 73L624.001 39Z" fill="url(#paint2_linear_710_5)"/>
<path d="M571 73L639.999 92.9094L639.999 106L571 86L571 73Z" fill="url(#paint3_linear_710_5)"/>
<path d="M640 93L696 54L696 58.5L696 66L640 106L640 93Z" fill="url(#paint4_linear_710_5)"/>
<path d="M71.8056 170L196.5 204.5L99.5379 248.968L-23.9221 209.5L71.8056 170Z" fill="#D9D9D9" fill-opacity="0.43"/>
</g>
<defs>
<linearGradient id="paint0_linear_710_5" x1="110.5" y1="274" x2="77.9713" y2="296.635" gradientUnits="userSpaceOnUse">
<stop stop-color="#1A8FE3"/>
<stop offset="1" stop-color="#0E4F7D"/>
</linearGradient>
<linearGradient id="paint1_linear_710_5" x1="772.5" y1="212.5" x2="724.426" y2="279.242" gradientUnits="userSpaceOnUse">
<stop stop-color="#1A8FE3"/>
<stop offset="0.610577" stop-color="#0E4F7D"/>
</linearGradient>
<linearGradient id="paint2_linear_710_5" x1="688.813" y1="57.2321" x2="640.738" y2="123.974" gradientUnits="userSpaceOnUse">
<stop stop-color="#1A8FE3"/>
<stop offset="0.610577" stop-color="#0E4F7D"/>
</linearGradient>
<linearGradient id="paint3_linear_710_5" x1="641.771" y1="97.7695" x2="593.697" y2="164.511" gradientUnits="userSpaceOnUse">
<stop stop-color="#1A8FE3"/>
<stop offset="0.610577" stop-color="#0E4F7D"/>
</linearGradient>
<linearGradient id="paint4_linear_710_5" x1="700.006" y1="50.3658" x2="725.816" y2="128.465" gradientUnits="userSpaceOnUse">
<stop stop-color="#1A8FE3"/>
<stop offset="0.610577" stop-color="#0E4F7D"/>
</linearGradient>
<clipPath id="clip0_710_5">
<rect width="820" height="312" fill="white"/>
</clipPath>
</defs>
</svg>
