<svg width="32" height="32" viewBox="0 0 32 32" fill="none" xmlns="http://www.w3.org/2000/svg">
<g clip-path="url(#clip0_702_2)">
<path d="M0 14.016L2.016 16H6.016V30.016C6.016 30.5707 6.208 31.04 6.592 31.424C6.976 31.808 7.44533 32 8 32H12V24C12 23.4453 12.192 22.976 12.576 22.592C12.96 22.208 13.44 22.016 14.016 22.016H18.016C18.5493 22.016 19.0187 22.208 19.424 22.592C19.8293 22.976 20.0213 23.4453 20 24V32H24C24.5547 32 25.024 31.808 25.408 31.424C25.792 31.04 25.9947 30.5707 26.016 30.016V16H30.016L32 14.016L16 0L0 14.016ZM12 14.016C12 12.9067 12.3947 11.9573 13.184 11.168C13.9733 10.3787 14.912 9.99467 16 10.016C17.088 10.0373 18.0267 10.4213 18.816 11.168C19.6053 11.9147 20 12.864 20 14.016C20 15.168 19.6053 16.1067 18.816 16.832C18.0267 17.5573 17.088 17.952 16 18.016C14.912 18.08 13.9733 17.6853 13.184 16.832C12.3947 15.9787 12 15.04 12 14.016Z" fill="#1A8FE3"/>
</g>
<defs>
<clipPath id="clip0_702_2">
<rect width="32" height="32" fill="white"/>
</clipPath>
</defs>
</svg>
