<svg width="50" height="50" viewBox="0 0 50 50" fill="none" xmlns="http://www.w3.org/2000/svg">
<path d="M23.4774 9.19022C23.9597 8.10818 24.2009 7.56716 24.5368 7.40055C24.8284 7.2558 25.1709 7.2558 25.4626 7.40055C25.7984 7.56716 26.0397 8.10818 26.522 9.19022L30.3636 17.8088C30.5063 18.1287 30.5776 18.2886 30.688 18.4111C30.7855 18.5195 30.9049 18.6062 31.038 18.6655C31.1886 18.7326 31.3628 18.751 31.7111 18.7877L41.0951 19.7782C42.2732 19.9025 42.8622 19.9647 43.1245 20.2326C43.3522 20.4652 43.458 20.7911 43.4105 21.1132C43.3559 21.4841 42.9159 21.8805 42.0359 22.6737L35.0261 28.9907C34.7661 29.2251 34.6359 29.3424 34.5536 29.4851C34.4807 29.6116 34.4351 29.7518 34.4199 29.8968C34.4026 30.0607 34.4388 30.232 34.5115 30.5747L36.4695 39.8053C36.7153 40.9643 36.8382 41.5437 36.6645 41.8757C36.5134 42.1645 36.2363 42.3657 35.9153 42.4201C35.5457 42.4826 35.0326 42.1868 34.0063 41.5949L25.8324 36.8803C25.529 36.7053 25.3774 36.618 25.2161 36.5837C25.0734 36.5534 24.9259 36.5534 24.7832 36.5837C24.622 36.618 24.4703 36.7053 24.167 36.8803L15.993 41.5949C14.9668 42.1868 14.4537 42.4826 14.0841 42.4201C13.7631 42.3657 13.4859 42.1645 13.335 41.8757C13.1613 41.5437 13.2841 40.9643 13.53 39.8053L15.4878 30.5747C15.5605 30.232 15.5968 30.0607 15.5795 29.8968C15.5643 29.7518 15.5187 29.6116 15.4458 29.4851C15.3634 29.3424 15.2333 29.2251 14.9732 28.9907L7.96354 22.6737C7.08352 21.8805 6.6435 21.4841 6.58879 21.1132C6.54129 20.7911 6.64715 20.4652 6.87494 20.2326C7.13719 19.9647 7.72625 19.9025 8.90437 19.7782L18.2883 18.7877C18.6366 18.751 18.8107 18.7326 18.9613 18.6655C19.0945 18.6062 19.2138 18.5195 19.3115 18.4111C19.4218 18.2886 19.4931 18.1287 19.6357 17.8088L23.4774 9.19022Z" fill="#E6C229" stroke="#E6C229" stroke-width="2" stroke-linecap="round" stroke-linejoin="round"/>
</svg>
