<svg width="34" height="34" viewBox="0 0 34 34" fill="none" xmlns="http://www.w3.org/2000/svg">
<path d="M14.4525 32.5995C16.3175 34.4793 18.0493 34.4645 19.9144 32.5995L22.1938 30.3348C22.4307 30.1128 22.6379 30.024 22.9487 30.024H26.1459C28.7953 30.024 30.024 28.8103 30.024 26.1459V22.9487C30.024 22.6379 30.1128 22.4307 30.3347 22.1939L32.5846 19.9144C34.4792 18.0494 34.4644 16.3176 32.5846 14.4526L30.3347 12.1731C30.1128 11.951 30.024 11.729 30.024 11.433V8.22101C30.024 5.58628 28.8102 4.34297 26.1459 4.34297H22.9487C22.6379 4.34297 22.4307 4.26895 22.1938 4.0469L19.9144 1.78225C18.0493 -0.0975918 16.3175 -0.0827506 14.4525 1.78225L12.173 4.0469C11.9511 4.26895 11.729 4.34297 11.4329 4.34297H8.22098C5.57148 4.34297 4.34294 5.55672 4.34294 8.22101V11.433C4.34294 11.729 4.26893 11.951 4.04694 12.1731L1.78223 14.4526C-0.0975524 16.3176 -0.0827743 18.0494 1.78223 19.9144L4.04694 22.1939C4.26893 22.4307 4.34294 22.6379 4.34294 22.9487V26.1459C4.34294 28.7954 5.57148 30.024 8.22098 30.024H11.4329C11.729 30.024 11.9511 30.1128 12.173 30.3348L14.4525 32.5995ZM14.6894 24.6362C14.2305 24.6362 13.9345 24.4881 13.7125 24.2365L8.76866 18.745C8.56145 18.5082 8.44304 18.2122 8.44304 17.9013C8.44304 17.2056 8.97593 16.6876 9.73081 16.6876C10.1304 16.6876 10.4265 16.8208 10.6929 17.1021L14.6153 21.439L22.2383 10.7077C22.5343 10.2784 22.8303 10.1008 23.3484 10.1008C24.0737 10.1008 24.5917 10.6337 24.5917 11.3294C24.5917 11.581 24.4881 11.8771 24.3253 12.1138L15.6958 24.1773C15.4739 24.4585 15.1335 24.6362 14.6894 24.6362Z" fill="#32CD32"/>
</svg>
