<svg width="64" height="64" viewBox="0 0 64 64" fill="none" xmlns="http://www.w3.org/2000/svg">
<g clip-path="url(#clip0_703_11)">
<path d="M54.4 0H9.6C4.29807 0 0 4.29807 0 9.6V54.4C0 59.7019 4.29807 64 9.6 64H54.4C59.7019 64 64 59.7019 64 54.4V9.6C64 4.29807 59.7019 0 54.4 0Z" fill="#25D366"/>
<path d="M15.3747 49.1251L17.1247 41.0001C14.8754 37.4524 13.998 33.2059 14.657 29.0572C15.316 24.9086 17.4662 21.143 20.7041 18.4669C23.942 15.7909 28.0451 14.3882 32.2436 14.5222C36.4421 14.6562 40.4474 16.3175 43.5081 19.1946C46.5688 22.0717 48.4745 25.9667 48.8677 30.1489C49.2608 34.3311 48.1145 38.513 45.6436 41.9101C43.1727 45.3072 39.5472 47.6859 35.4472 48.6C31.3473 49.5142 27.0546 48.9008 23.3747 46.8751L15.3747 49.1251Z" fill="#25D366" stroke="white" stroke-width="3.25"/>
<path d="M38.5001 34.1251C38.1251 33.8751 37.7501 33.7501 37.3751 34.2501L35.8751 36.2501C35.5001 36.5001 35.2501 36.6251 34.7501 36.3751C32.8751 35.3751 30.2501 34.2501 28.0001 30.5001C27.8751 30.0001 28.1251 29.7501 28.3751 29.5001L29.5001 27.7501C29.7501 27.5001 29.6251 27.2501 29.5001 27.0001L28.0001 23.3751C27.6251 22.3751 27.2501 22.5001 26.8751 22.5001H25.8751C25.6251 22.5001 25.1251 22.6251 24.6251 23.1251C21.8751 25.8751 23.0001 29.7501 25.0001 32.2501C25.3751 32.7501 27.8751 37.2501 33.2501 39.6251C37.2501 41.3751 38.1251 41.1251 39.2501 40.8751C40.6251 40.7501 42.0001 39.6251 42.6251 38.5001C42.7501 38.1251 43.3751 36.5001 42.8751 36.2501" fill="white"/>
</g>
<defs>
<clipPath id="clip0_703_11">
<rect width="64" height="64" fill="white"/>
</clipPath>
</defs>
</svg>
